<svg width="2156" height="397" viewBox="0 0 2156 397" fill="none" xmlns="http://www.w3.org/2000/svg">
<path d="M329.34 64.2002C294.366 30.0329 247.394 10.9338 198.5 11.0002C94.95 11.0002 11 94.9502 11 198.5C11 302.05 95 386 198.5 386C302 386 386 302.06 386 198.5C386.043 168.92 379.058 139.752 365.62 113.4L217.03 204.16" stroke="white" stroke-width="22" stroke-miterlimit="10"/>
<path d="M75.2227 201.88C75.2227 234.571 88.2089 265.923 111.325 289.038C134.44 312.154 165.792 325.14 198.483 325.14C231.173 325.14 262.525 312.154 285.641 289.038C308.756 265.923 321.743 234.571 321.743 201.88L199.323 276.63L75.2227 201.88Z" stroke="white" stroke-width="22" stroke-miterlimit="10"/>
<path d="M198.5 353.2V276.67" stroke="white" stroke-width="22" stroke-miterlimit="10"/>
<path d="M813.205 134C809.611 123.001 804.874 113.145 798.993 104.433C793.221 95.6122 786.306 88.098 778.247 81.8906C770.297 75.6832 761.259 70.946 751.131 67.679C741.003 64.4119 729.895 62.7784 717.807 62.7784C697.987 62.7784 679.964 67.8968 663.737 78.1335C647.511 88.3703 634.606 103.453 625.023 123.382C615.439 143.311 610.648 167.759 610.648 196.727C610.648 225.695 615.494 250.143 625.186 270.072C634.878 290.001 648.001 305.084 664.554 315.321C681.107 325.558 699.729 330.676 720.42 330.676C739.587 330.676 756.467 326.592 771.06 318.425C785.761 310.148 797.196 298.496 805.364 283.467C813.64 268.33 817.778 250.525 817.778 230.051L830.193 232.665H729.568V196.727H856.983V232.665C856.983 260.217 851.102 284.175 839.341 304.54C827.688 324.904 811.571 340.695 790.989 351.912C770.515 363.02 746.992 368.574 720.42 368.574C690.799 368.574 664.772 361.604 642.338 347.665C620.013 333.725 602.589 313.905 590.065 288.205C577.651 262.504 571.443 232.011 571.443 196.727C571.443 170.264 574.982 146.469 582.061 125.342C589.249 104.107 599.376 86.0289 612.445 71.1094C625.513 56.1899 640.977 44.7552 658.837 36.8054C676.696 28.8556 696.353 24.8807 717.807 24.8807C735.449 24.8807 751.893 27.5488 767.139 32.8849C782.494 38.1122 796.161 45.5719 808.141 55.2642C820.229 64.8475 830.302 76.3366 838.361 89.7315C846.42 103.018 851.973 117.774 855.023 134H813.205ZM921.14 364V113.091H958.384V150.989H960.998C965.571 138.574 973.848 128.5 985.827 120.768C997.806 113.036 1011.31 109.17 1026.34 109.17C1029.17 109.17 1032.71 109.225 1036.96 109.334C1041.2 109.443 1044.42 109.606 1046.59 109.824V149.028C1045.29 148.702 1042.29 148.212 1037.61 147.558C1033.04 146.796 1028.19 146.415 1023.07 146.415C1010.87 146.415 999.984 148.974 990.401 154.092C980.926 159.102 973.412 166.071 967.858 175.001C962.413 183.822 959.691 193.896 959.691 205.222V364H921.14ZM1189.85 369.227C1165.68 369.227 1144.82 363.891 1127.29 353.219C1109.87 342.438 1096.42 327.409 1086.94 308.134C1077.58 288.749 1072.89 266.206 1072.89 240.506C1072.89 214.805 1077.58 192.153 1086.94 172.551C1096.42 152.84 1109.59 137.485 1126.47 126.486C1143.46 115.378 1163.28 109.824 1185.93 109.824C1199 109.824 1211.91 112.002 1224.65 116.358C1237.39 120.714 1248.99 127.793 1259.44 137.594C1269.9 147.286 1278.23 160.136 1284.44 176.145C1290.64 192.153 1293.75 211.865 1293.75 235.278V251.614H1100.34V218.29H1254.54C1254.54 204.133 1251.71 191.5 1246.05 180.392C1240.49 169.284 1232.54 160.518 1222.2 154.092C1211.96 147.667 1199.87 144.455 1185.93 144.455C1170.58 144.455 1157.29 148.266 1146.08 155.889C1134.97 163.403 1126.42 173.205 1120.43 185.293C1114.44 197.381 1111.44 210.34 1111.44 224.17V246.386C1111.44 265.335 1114.71 281.398 1121.25 294.575C1127.89 307.643 1137.09 317.608 1148.85 324.469C1160.61 331.221 1174.28 334.597 1189.85 334.597C1199.98 334.597 1209.13 333.181 1217.3 330.349C1225.57 327.409 1232.71 323.053 1238.7 317.281C1244.69 311.401 1249.31 304.104 1252.58 295.392L1289.83 305.847C1285.91 318.479 1279.32 329.587 1270.06 339.17C1260.8 348.645 1249.37 356.05 1235.76 361.386C1222.14 366.614 1206.84 369.227 1189.85 369.227ZM1457.59 369.227C1433.41 369.227 1412.56 363.891 1395.02 353.219C1377.6 342.438 1364.15 327.409 1354.68 308.134C1345.31 288.749 1340.63 266.206 1340.63 240.506C1340.63 214.805 1345.31 192.153 1354.68 172.551C1364.15 152.84 1377.33 137.485 1394.21 126.486C1411.2 115.378 1431.02 109.824 1453.67 109.824C1466.74 109.824 1479.64 112.002 1492.38 116.358C1505.12 120.714 1516.72 127.793 1527.18 137.594C1537.63 147.286 1545.96 160.136 1552.17 176.145C1558.38 192.153 1561.48 211.865 1561.48 235.278V251.614H1368.07V218.29H1522.28C1522.28 204.133 1519.44 191.5 1513.78 180.392C1508.23 169.284 1500.28 160.518 1489.93 154.092C1479.7 147.667 1467.61 144.455 1453.67 144.455C1438.31 144.455 1425.03 148.266 1413.81 155.889C1402.7 163.403 1394.15 173.205 1388.16 185.293C1382.17 197.381 1379.18 210.34 1379.18 224.17V246.386C1379.18 265.335 1382.45 281.398 1388.98 294.575C1395.62 307.643 1404.83 317.608 1416.59 324.469C1428.35 331.221 1442.02 334.597 1457.59 334.597C1467.72 334.597 1476.86 333.181 1485.03 330.349C1493.31 327.409 1500.44 323.053 1506.43 317.281C1512.42 311.401 1517.05 304.104 1520.32 295.392L1557.56 305.847C1553.64 318.479 1547.05 329.587 1537.79 339.17C1528.54 348.645 1517.1 356.05 1503.49 361.386C1489.88 366.614 1474.58 369.227 1457.59 369.227ZM1658.68 213.062V364H1620.12V113.091H1657.37V152.295H1660.64C1666.52 139.554 1675.45 129.317 1687.43 121.585C1699.4 113.744 1714.87 109.824 1733.82 109.824C1750.81 109.824 1765.67 113.309 1778.41 120.278C1791.15 127.139 1801.06 137.594 1808.14 151.642C1815.22 165.581 1818.76 183.223 1818.76 204.568V364H1780.21V207.182C1780.21 187.471 1775.09 172.116 1764.85 161.116C1754.62 150.009 1740.57 144.455 1722.71 144.455C1710.4 144.455 1699.4 147.123 1689.71 152.459C1680.13 157.795 1672.56 165.581 1667.01 175.818C1661.45 186.055 1658.68 198.47 1658.68 213.062ZM1894.43 364V29.4545H2007.47C2033.61 29.4545 2055.06 33.9195 2071.83 42.8494C2088.6 51.6704 2101.02 63.813 2109.08 79.277C2117.14 94.741 2121.17 112.329 2121.17 132.04C2121.17 151.751 2117.14 169.23 2109.08 184.476C2101.02 199.722 2088.66 211.701 2072 220.413C2055.34 229.017 2034.04 233.318 2008.13 233.318H1916.65V196.727H2006.82C2024.68 196.727 2039.05 194.114 2049.94 188.886C2060.94 183.659 2068.89 176.254 2073.79 166.67C2078.8 156.978 2081.31 145.435 2081.31 132.04C2081.31 118.645 2078.8 106.938 2073.79 96.919C2068.78 86.9001 2060.78 79.1681 2049.78 73.723C2038.78 68.169 2024.24 65.392 2006.17 65.392H1934.94V364H1894.43ZM2051.9 213.716L2134.23 364H2087.19L2006.17 213.716H2051.9Z" fill="white"/>
</svg>
